<?xml version="1.0" standalone="no"?>
<svg viewBox="0 0 200 200" xmlns="http://www.w3.org/2000/svg">
  <path fill="#75A5FF" d="M22.6,-40.4C26.7,-32.5,25.6,-21.9,34.3,-12.7C43,-3.6,61.6,3.9,66,13.2C70.4,22.4,60.7,33.3,51.1,44.1C41.4,54.8,31.9,65.5,20.9,66.6C9.9,67.7,-2.5,59.3,-16,55C-29.5,50.8,-44,50.8,-52.7,43.9C-61.5,37.1,-64.4,23.4,-60.6,12.2C-56.8,1,-46.3,-7.7,-41,-18.5C-35.7,-29.4,-35.7,-42.4,-29.7,-49.4C-23.7,-56.5,-11.9,-57.6,-1.3,-55.5C9.3,-53.5,18.5,-48.3,22.6,-40.4Z" transform="translate(100 100)" />
</svg>
